<svg width="232" height="115" viewBox="0 0 232 115" fill="none" xmlns="http://www.w3.org/2000/svg">
<g opacity="0.4">
<path d="M112.776 111.414C147.046 121.431 167.629 97.5411 167.629 97.5411C173.459 97.4341 187.331 99.6767 187.331 99.6767L201.418 62.6876C201.418 62.6876 189.574 55.1387 185.297 51.1709C185.297 51.1709 185.826 19.6427 153.578 4.31876C149.134 2.25148 144.429 0.798571 139.593 0L146.874 11.5643L128.48 17.1026L129.623 35.1034H125.696V40.3323L114.667 44.0086L116.196 54.1214L97.4043 48.3809L93.9302 59.4099L82.1696 51.1292L76.0365 54.4902L72.61 47.7206C66.6851 80.7301 91.3842 105.161 112.776 111.414Z" fill="#196AE5"/>
</g>
<g opacity="0.4">
<path d="M112.776 111.414C147.046 121.431 167.629 97.5411 167.629 97.5411C173.459 97.4341 187.331 99.6767 187.331 99.6767L201.418 62.6876C201.418 62.6876 189.574 55.1387 185.297 51.1709C185.297 51.1709 185.826 19.6427 153.578 4.31876C149.14 2.25143 144.441 0.798485 139.61 0L147.469 22.0578L140.83 25.4248L147.469 56.1737L125.988 57.7502L122.823 65.4835L113.305 61.4503L110.242 66.7684L107.612 63.2944L91.6697 80.7717L72.5684 47.9705C66.81 80.855 91.4377 105.179 112.776 111.414Z" fill="#196AE5"/>
</g>
<path d="M147.317 39.5612L146.386 41.084L200.475 74.1389L201.406 72.6161L147.317 39.5612Z" fill="white"/>
<path d="M131.875 79.1777L131.556 80.9336L193.924 92.2678L194.243 90.5119L131.875 79.1777Z" fill="white"/>
<path d="M138.48 81.0693C136.505 81.0693 135.018 80.9384 134.84 80.9205L134.893 80.3257C135.018 80.3257 147.332 81.4321 148.926 77.2502C149.2 76.52 149.326 75.7426 149.296 74.9634C149.266 74.1841 149.082 73.4186 148.754 72.7113C142.513 73.3062 135.446 71.6524 133.287 68.9755C132.966 68.6227 132.75 68.1883 132.66 67.7201C132.571 67.252 132.613 66.7683 132.781 66.3224C133.674 63.9786 136.684 63.461 140.634 64.9661C144.274 66.3521 147.629 69.0409 149.105 72.0748C149.497 72.0331 149.89 71.9796 150.294 71.9201C154.333 71.2717 157.052 69.6239 157.944 67.2801C159.134 64.163 157.112 60.0584 153.965 56.5308C153.454 56.6752 152.936 56.7884 152.412 56.8699C147.897 57.5897 141.597 56.5665 139.408 53.8955C139.007 53.4223 138.745 52.8472 138.65 52.234C138.556 51.6209 138.633 50.9935 138.873 50.4214C139.628 48.4346 141.752 47.9884 144.821 49.1663C147.891 50.3441 151.425 52.8723 154.161 55.8645C155.708 55.3648 156.719 54.6093 157.076 53.6754C158.932 48.7974 148.688 42.4383 148.581 42.3728L148.896 41.8672C149.337 42.1349 159.664 48.5536 157.629 53.8836C157.231 54.9365 156.178 55.7813 154.589 56.3404C157.76 59.9751 159.735 64.2046 158.474 67.5121C157.213 70.8196 153.376 72.0391 150.366 72.5269C150.033 72.5804 149.699 72.628 149.36 72.6637C150.026 74.1921 150.075 75.9185 149.497 77.4822C148.313 80.5398 142.43 81.0693 138.48 81.0693ZM136.571 64.7162C135.072 64.7162 133.822 65.2159 133.317 66.5425C133.186 66.8911 133.156 67.2693 133.23 67.6341C133.304 67.9989 133.478 68.3358 133.733 68.6067C135.738 71.0754 142.543 72.628 148.48 72.1402C146.909 69.1659 143.382 66.6615 140.408 65.5253C139.186 65.0328 137.887 64.7589 136.571 64.7162ZM141.835 49.1127C141.319 49.0636 140.8 49.1846 140.359 49.4574C139.917 49.7302 139.577 50.1397 139.39 50.6237C139.185 51.0974 139.118 51.6193 139.196 52.1295C139.274 52.6398 139.494 53.1178 139.831 53.5088C141.883 56.037 147.927 56.9829 152.275 56.2869C152.698 56.2215 153.096 56.1382 153.465 56.043C150.812 53.2055 147.475 50.8081 144.589 49.7135C143.713 49.3552 142.781 49.1519 141.835 49.1127Z" fill="white"/>
<path d="M211.081 114.063L228.737 67.7305L203.239 58.014L185.583 104.347L211.081 114.063Z" fill="#DBDBDB"/>
<path d="M213.095 108.825C218.96 107.939 225.278 104.364 229.073 94.3998C232.868 84.4357 230.536 77.5649 226.741 72.9844L213.095 108.825Z" fill="#DBDBDB"/>
<path d="M213.095 108.825C214.846 108.567 216.551 108.058 218.157 107.314L227.865 74.4833C227.517 73.9681 227.142 73.4717 226.741 72.9961L213.095 108.825Z" fill="#C7C7C7"/>
<path d="M189.942 107.571L213.16 60.2549L210.935 59.4102L187.717 106.726L189.942 107.571Z" fill="#C7C7C7"/>
<path d="M196.671 110.135L219.888 62.8193L217.664 61.9746L194.446 109.291L196.671 110.135Z" fill="#C7C7C7"/>
<path d="M203.405 112.698L226.623 65.3818L224.398 64.5371L201.18 111.853L203.405 112.698Z" fill="#C7C7C7"/>
<path d="M176.772 41.6401C175.225 41.9375 173.024 33.9782 164.197 24.9183C160.276 20.8969 145.643 16.0904 146.576 11.3135C147.51 6.53672 160.556 11.1172 167.26 18.4877C178.021 30.3851 178.194 41.3665 176.772 41.6401Z" fill="white"/>
<path d="M111.342 97.31C110.152 100.433 105.292 98.589 106.488 95.46C107.684 92.331 112.538 94.181 111.342 97.31Z" fill="white"/>
<path d="M153.685 95.9359C154.339 98.1428 143.53 103.515 132.977 103.776C124.215 103.996 114.435 100.879 114.673 98.5771C114.911 96.2749 128.569 99.9334 134.369 99.2731C141.686 98.4343 152.989 93.5802 153.685 95.9359Z" fill="white"/>
<path opacity="0.4" d="M64.1866 112.985L68.9099 107.714L63.9129 103.515L67.1074 90.469L56.3224 91.1888L54.9542 72.9084L46.6973 77.6674L39.773 69.3392L35.2282 71.1238L33.9017 67.7152L18.6372 74.7882L7.60237 60.6719L0.00585938 70.8977C4.26514 91.7182 21.1773 114.294 52.6996 114.079H53.0982C56.8205 114.064 60.533 113.697 64.1866 112.985Z" fill="#196AE5"/>
<path opacity="0.4" d="M64.3889 112.924L86.4468 85.2148L65.8583 77.2851L67.9641 73.7932L62.3069 72.9306L62.5984 63.3116L54.8234 63.1688L46.1799 45.0371L21.689 61.2176L16.5196 56.5598L0 70.8367C4.25928 91.687 21.1596 114.262 52.6997 114.03H53.0983C56.8888 114.028 60.6701 113.658 64.3889 112.924Z" fill="#196AE5"/>
</svg>
